<svg width="641" height="469" viewBox="0 0 641 469" fill="none" xmlns="http://www.w3.org/2000/svg">
<path d="M488.544 21.5995C535.624 45.0366 560.377 96.069 589.984 150.126C619.105 203.804 652.595 260.507 637.064 306.247C621.532 352.365 556.009 387.899 491.942 416.628C427.874 444.98 364.292 466.149 298.769 468.795C232.76 471.063 164.81 454.43 108.023 424.189C50.7511 393.569 4.15675 350.097 0.273889 303.979C-3.60898 257.861 34.7343 209.852 55.6047 156.552C76.4751 103.251 80.358 45.0366 118.216 19.3314C156.074 -6.37382 228.392 0.430505 299.74 1.94258C370.602 3.07663 440.979 -1.45958 488.544 21.5995Z" fill="#8AC4D0"/>
</svg>
