<svg width="1920" height="320" viewBox="0 0 1920 320" fill="none" xmlns="http://www.w3.org/2000/svg">
<path d="M0 160L53.3333 170.7C106.667 181 213.333 203 320 181.3C426.667 160 533.333 96 640 101.3C746.667 107 853.333 181 960 181.3C1066.67 181 1173.33 107 1280 90.7C1386.67 75 1493.33 117 1600 122.7C1706.67 128 1813.33 96 1866.67 80L1920 64V320H1866.67C1813.33 320 1706.67 320 1600 320C1493.33 320 1386.67 320 1280 320C1173.33 320 1066.67 320 960 320C853.333 320 746.667 320 640 320C533.333 320 426.667 320 320 320C213.333 320 106.667 320 53.3333 320H0V160Z" fill="#FFF5E2"/>
</svg>
