<svg width="518" height="523" viewBox="0 0 518 523" fill="none" xmlns="http://www.w3.org/2000/svg">
<g clip-path="url(#clip0_59_161)">
<path d="M3.88876 184.918C39.6808 234.534 91.6017 256.911 149.548 244.522C171.022 239.931 169.372 241.281 170.742 221.77C173.346 184.496 191.696 155.159 220.968 132.645C232.224 123.987 245.676 119.699 259.876 119.681C280.768 119.663 291.676 133.743 285.775 153.92C278.122 180.104 260.057 199.054 239.352 215.676C226.523 225.977 212.17 233.983 197.492 241.244C188.693 245.601 185.587 251.304 188.534 260.899C193.402 276.774 199.426 291.84 213.151 302.344C229.524 314.867 239.915 312.275 248.825 293.71C254.851 281.151 260.918 268.603 272.028 259.47C277.775 254.74 283.947 250.686 291.222 248.867C305.161 245.382 313.98 253.619 310.771 267.679C307.968 279.976 300.795 290.162 291.46 298.365C284.741 304.263 277.581 310.812 269.427 313.699C251.966 319.86 248.997 332.941 248.95 348.513C248.904 363.42 251.1 377.883 258.007 391.262C267.121 408.909 281.091 416.763 300.299 412.92C333.417 406.31 356.688 384.647 377.416 359.691C381.548 354.714 379.275 350.856 375.181 347.163C370.967 343.364 366.304 339.777 363.078 335.221C346.024 311.164 360.182 277.478 389.184 272.497C407.098 269.425 419.538 280.111 418.814 298.455C418.189 314.221 410.97 328.332 404.911 345.263C435.753 354.836 463.314 350.069 490.498 336.417C498.239 332.531 507.741 319.016 514.719 330.03C519.465 337.502 503.965 341.782 497.088 346.395C471.319 363.712 442.388 368.593 412.55 361.65C399.062 358.513 392.054 361.988 383.638 372.005C364.599 394.668 342.971 414.484 313.428 423.383C278.523 433.895 251.68 420.065 240.96 385.034C236.125 369.257 233.926 353.091 236.363 336.582C237.29 330.34 237.065 325.299 229.247 323.791C200.967 318.353 186.76 298.884 178.131 273.219C171.453 253.36 170.921 253.691 148.909 257.028C100.897 264.336 57.9621 254.346 22.0012 220.011C11.7487 210.222 5.69412 198.744 3.88876 184.918ZM209.15 222.038C231.183 208.302 250.623 192.199 264.164 170.248C270.318 160.277 281.076 148.148 270.388 137.28C259.704 126.421 245.473 133.587 234.273 140.217C209.899 154.651 195.363 177.002 187.858 203.847C185.575 212.027 179.521 222.677 187.78 228.891C194.966 234.3 202.066 224.33 209.155 222.046L209.15 222.038ZM372.327 324.302C375.897 331.111 381.091 337.6 388.669 337.578C396.224 337.558 397.293 328.853 399.699 323.11C402.2 317.127 404.105 310.799 405.41 304.443C406.696 298.157 408.495 290.735 401.292 286.875C394.31 283.134 386.891 284.826 380.516 289.277C369.762 296.782 366.2 312.656 372.327 324.302ZM298.233 262.71C276.179 268.662 268.261 278.287 265.81 299.484C286.146 288.291 287.744 286.529 298.233 262.71Z" fill="#3F83A8"/>
</g>
<defs>
<clipPath id="clip0_59_161">
<rect width="374.326" height="386.908" fill="white" transform="translate(0 187.163) rotate(-30)"/>
</clipPath>
</defs>
</svg>
