<svg width="177" height="89" viewBox="0 0 177 89" fill="none" xmlns="http://www.w3.org/2000/svg">
<path d="M75.0947 0.5C75.1604 0.496168 75.353 0.536472 75.6221 0.977539C75.9626 1.53582 76.2667 2.49544 76.4775 3.80859C76.435 3.67473 76.3866 3.55263 76.3311 3.44531C76.2227 3.23578 76.0259 2.96071 75.6855 2.88672C75.3198 2.80739 75.0199 3.00415 74.8242 3.20312C74.7147 3.31451 74.6358 3.45331 74.5771 3.58105C74.5158 3.71469 74.4626 3.86884 74.415 4.0332C74.3199 4.36201 74.2389 4.76912 74.1748 5.22168C74.0623 6.01538 73.9947 6.9819 73.9912 7.97852L73.9941 8.40723C74.0086 9.33144 74.0256 10.0464 74.0576 10.5596C74.0736 10.8154 74.0941 11.0331 74.1221 11.207C74.1462 11.3572 74.1863 11.554 74.2842 11.7061C74.3379 11.7894 74.4526 11.9263 74.6533 11.9717C74.8615 12.0186 75.0288 11.938 75.1191 11.875C75.2734 11.7673 75.3791 11.5929 75.4453 11.4746C75.5995 11.1992 75.7839 10.758 76.0039 10.207C76.4773 9.02139 76.6991 7.47633 76.7217 6.14648L76.7295 6.26172L77.0264 11.8555L77.0537 12.373L77.5713 12.3262L83.2734 11.8125C86.4164 11.5289 99.1144 10.1489 111.487 8.74609C126.278 7.06971 134.428 6.16717 138.772 5.7959C138.984 5.77781 139.187 5.76358 139.38 5.74805C137.9 5.97043 136.033 6.2325 133.879 6.52051C128.453 7.24611 121.22 8.14051 113.807 9.0127C98.9581 10.7595 83.4444 12.4092 80.2148 12.4434C79.353 12.4523 78.6487 12.4762 78.0742 12.5703C77.491 12.6658 77.0008 12.8398 76.5908 13.1787C76.1846 13.5146 75.9048 13.9736 75.667 14.5479C75.4307 15.1184 75.2195 15.8462 74.9756 16.752C74.4673 18.6408 73.7342 21.8625 73.2314 24.3906L73.0312 25.4258L72.1465 30.1641L73.0293 30.5674L75.2598 27.7695C75.8125 27.0764 76.3466 26.5858 76.8242 26.2793C77.3068 25.9697 77.697 25.8692 77.9775 25.8896C78.2328 25.9083 78.4479 26.0291 78.6182 26.3037C78.8003 26.5975 78.9339 27.0795 78.9365 27.793V27.7939C78.9389 28.3404 79.1236 29.1341 79.3877 29.9482C79.6229 30.6732 79.9349 31.456 80.2832 32.165L80.4346 32.4639C80.7391 33.048 80.9605 33.4969 81.1055 33.8438C81.2376 34.1599 81.2849 34.3484 81.2959 34.4531C81.2306 34.4673 81.1126 34.4824 80.9102 34.4824C80.8931 34.4824 80.7926 34.4668 80.6084 34.3018C80.4341 34.1454 80.235 33.8994 80.0273 33.5645C79.6131 32.8962 79.2079 31.943 78.9141 30.8525C78.6146 29.7396 78.2832 28.7213 77.9893 27.9746C77.8433 27.6037 77.7007 27.2859 77.5703 27.0537C77.5064 26.9399 77.4349 26.8264 77.3555 26.7354C77.3158 26.6899 77.2613 26.6354 77.1924 26.5889C77.1428 26.5555 77.0652 26.5126 76.9648 26.4932L76.8574 26.4824C76.6901 26.4824 76.5665 26.5578 76.5137 26.5938C76.4495 26.6374 76.3954 26.6895 76.3525 26.7344C76.2656 26.8254 76.1754 26.9434 76.0859 27.0723C75.9044 27.3339 75.6844 27.6994 75.4434 28.1357C74.9595 29.0118 74.366 30.2126 73.7773 31.5283C73.2489 32.7089 72.8568 33.5818 72.5547 34.1895C72.4495 34.4009 72.3552 34.5725 72.2754 34.7119C72.1994 34.4228 72.1155 34.0236 72.0088 33.501L71.4209 30.6191L71.1758 29.4199L70.5107 30.4473L67.2666 35.4609C66.0167 37.3922 64.8407 38.788 63.792 39.6748C62.7306 40.5723 61.8707 40.8892 61.2324 40.8252C60.6366 40.7653 60.073 40.3521 59.6328 39.3584C59.1895 38.3576 58.9129 36.8452 58.8838 34.792L58.8379 31.4756L57.8945 31.252L55.4033 36.0381C54.726 37.3395 54.1255 38.2998 53.6133 38.9346C53.3572 39.2519 53.1341 39.4745 52.9463 39.6162C52.7541 39.7612 52.633 39.7957 52.5762 39.7998C52.5445 39.8021 52.5145 39.8 52.4609 39.7461C52.3919 39.6765 52.2997 39.5308 52.2119 39.2598C52.0364 38.7179 51.9307 37.8405 51.9307 36.5908C51.9307 35.6504 51.982 34.8899 52.0801 34.3018C52.1799 33.7034 52.3214 33.3307 52.4668 33.125C52.5911 32.9492 52.6924 32.9224 52.8037 32.9326C52.97 32.948 53.2447 33.0626 53.6436 33.3936C53.9102 33.6149 54.2113 33.7768 54.5518 33.8213C54.898 33.8664 55.2302 33.783 55.541 33.6104C56.1303 33.2829 56.7066 32.5968 57.332 31.6426C57.8533 30.847 58.2812 30.4176 58.5947 30.2471C58.7415 30.1672 58.832 30.1611 58.8818 30.168C58.9275 30.1743 58.9964 30.1995 59.0869 30.2979C59.2902 30.5191 59.5076 31.0059 59.667 31.8584C59.8225 32.6901 59.9103 33.7962 59.916 35.1758C59.9213 36.474 60.0078 37.5105 60.209 38.2578C60.402 38.9745 60.7565 39.6182 61.4443 39.7666C61.7717 39.8372 62.1032 39.7743 62.417 39.6436C62.7303 39.5129 63.0562 39.3023 63.3926 39.0322C64.0647 38.4927 64.8495 37.6598 65.7568 36.5596C67.7244 34.1742 69.5133 30.8659 70.8105 27.4883C72.1065 24.114 72.9307 20.6205 72.9307 17.8594V13.2949L72.415 13.3115L53.165 13.9297C42.5827 14.2695 31.5148 14.7945 28.5752 15.0967H28.5742L23.2705 15.6436L22.2783 15.7461L22.9541 16.4795L26.9375 20.8008C29.1056 23.1529 31.81 26.9054 32.9346 29.1104V29.1113C33.4808 30.1817 33.986 31.071 34.4229 31.752C34.8506 32.4189 35.2383 32.9266 35.5518 33.1963C35.6331 33.2662 35.7262 33.3346 35.8281 33.3848C35.9247 33.4323 36.0772 33.4874 36.2559 33.46C36.4615 33.4283 36.6108 33.3026 36.6973 33.1572C36.773 33.03 36.799 32.8939 36.8086 32.7891C36.8281 32.5771 36.7961 32.3163 36.7383 32.0322C36.6785 31.7387 36.5822 31.382 36.4492 30.9629C36.3172 30.5466 36.2818 29.8454 36.3652 29.0225C36.4474 28.2124 36.6383 27.3439 36.9141 26.6191C37.1431 26.0163 37.328 25.5757 37.4922 25.2666C37.664 24.9433 37.7733 24.8435 37.8154 24.8193C37.8249 24.8208 37.8545 24.8274 37.9102 24.8574C38.0546 24.9356 38.2579 25.1047 38.5586 25.4102C39.0342 25.893 39.2799 26.3784 39.3281 27.1895C39.3791 28.0476 39.2074 29.2563 38.7949 31.1689C38.0326 34.7061 38.092 38.2714 38.9736 43.8525C39.6577 48.1868 40.2725 57.9333 40.5977 67.0859C40.76 71.6565 40.8499 76.068 40.8408 79.5674C40.8363 81.3174 40.807 82.8354 40.75 84.0293C40.6923 85.2391 40.6072 86.0742 40.5039 86.4854C40.3436 87.1244 40.194 87.5983 40.0625 87.9199C39.9471 87.534 39.8314 86.9455 39.7197 86.1318C39.2652 82.819 38.9172 76.1556 38.623 65.7002C37.9414 41.434 36.8339 35.1931 31.5635 27.207C28.2149 22.1327 25.8344 19.1536 22.6143 17.4834C19.4002 15.8165 15.4165 15.4888 8.98145 15.4863C5.23969 15.4848 2.85575 15.4118 1.51855 15.2373C1.19813 15.1955 0.94981 15.1485 0.763672 15.0996C0.822593 15.0811 0.89151 15.0628 0.970703 15.043C1.29414 14.962 1.75127 14.8821 2.35449 14.8057C3.55871 14.6531 5.29537 14.5197 7.60156 14.4043C12.2115 14.1737 19.0589 14.0182 28.3926 13.9268C43.2745 13.7798 59.2368 13.3467 63.8574 12.9619L72.2197 12.2656L72.627 12.2324L72.6748 11.8262L73.2568 6.90918C73.4153 5.57036 73.6299 4.23924 73.8477 3.17676C73.9566 2.6452 74.065 2.18586 74.166 1.8291C74.272 1.45487 74.3569 1.24478 74.4033 1.16895C74.7517 0.60549 75.0012 0.505465 75.0947 0.5ZM170.002 32.6221C166.305 33.5347 161.266 34.7312 155.779 35.9912C120.43 44.1073 96.2031 51.3891 80.7207 58.5664C71.5745 62.8062 66.0264 65.3395 62.4219 66.8701C58.8126 68.4027 57.1878 68.9138 55.875 69.1318C55.4221 69.2069 55.0461 69.2664 54.7393 69.3105L55.1865 68.9434C55.6874 68.5377 56.2921 68.1648 56.8584 67.8955C57.4434 67.6173 57.9187 67.4825 58.1777 67.4824C58.2883 67.4824 58.411 67.4572 58.5127 67.4326C58.6259 67.4053 58.7607 67.3671 58.9121 67.3193C59.216 67.2235 59.6112 67.0842 60.082 66.9082C61.0248 66.5557 62.2939 66.0474 63.7969 65.4229C66.8045 64.1732 70.7627 62.4512 74.9453 60.5576C83.288 56.7796 96.5132 51.6269 104.321 49.1123C119.588 44.1964 153.748 35.369 166.312 33.0908C168.849 32.6307 170.813 32.2857 172.306 32.0439C171.615 32.2194 170.843 32.4144 170.002 32.6221ZM92.9072 20.7188C93.1425 20.5769 93.3101 20.5639 93.4717 20.6123C93.666 20.6707 93.9259 20.841 94.2783 21.2266C94.5389 21.5116 94.8278 21.8892 95.1592 22.3701L95.5049 22.8857C96.0948 23.7859 96.4531 24.6479 96.6162 25.6084C96.7802 26.5746 96.751 27.6664 96.5322 29.0322V29.0332C96.3214 30.352 96.2436 31.3731 96.3291 32.0576C96.3707 32.3907 96.4606 32.7278 96.666 32.9697C96.7768 33.1 96.9223 33.2034 97.1016 33.2539C97.2777 33.3034 97.4517 33.2917 97.6074 33.251C97.9026 33.1736 98.1903 32.976 98.46 32.7363C98.7393 32.488 99.0452 32.1536 99.376 31.7432C100.038 30.9217 100.834 29.7523 101.762 28.2451C102.749 26.6401 103.566 25.457 104.226 24.6807C104.556 24.2918 104.833 24.0204 105.06 23.8506C105.296 23.6739 105.422 23.6486 105.461 23.6484C105.471 23.6484 105.472 23.6495 105.474 23.6504C105.479 23.654 105.503 23.6711 105.537 23.7236C105.613 23.8397 105.696 24.062 105.758 24.4385C105.88 25.184 105.89 26.3444 105.779 27.9492C105.683 29.3404 105.677 30.6156 105.749 31.5527C105.785 32.0172 105.841 32.4221 105.923 32.7217C105.963 32.8676 106.017 33.0225 106.1 33.1514C106.173 33.266 106.351 33.4834 106.661 33.4834H106.662C106.88 33.4829 107.054 33.3695 107.146 33.3018C107.258 33.2197 107.371 33.1121 107.479 32.9951C107.696 32.759 107.946 32.4312 108.21 32.0459C108.741 31.2719 109.363 30.2147 109.953 29.0586C110.704 27.5861 111.261 26.7162 111.667 26.3223C111.803 26.1904 111.884 26.1494 111.917 26.1367C111.934 26.1515 111.967 26.1829 112.011 26.2529C112.185 26.5354 112.312 26.9389 112.359 27.3662C112.407 27.7958 112.368 28.1933 112.264 28.4658C112.085 28.9315 112.03 29.6309 112.051 30.3408C112.072 31.0694 112.175 31.881 112.357 32.6064C112.598 33.5665 112.984 34.3547 113.645 34.8428C114.317 35.3399 115.176 35.4552 116.197 35.2852C117.212 35.1161 118.449 34.656 119.952 33.9258C121.461 33.1928 123.269 32.1731 125.431 30.8604C127.45 29.6349 129.333 28.5703 130.753 27.8359C129.584 28.6957 128.027 29.7635 126.372 30.8398C124.581 32.005 122.685 33.1794 121.062 34.1172C119.421 35.0658 118.109 35.7433 117.461 35.9492C116.216 36.3441 114.813 36.119 113.72 35.5039C112.618 34.884 111.931 33.9324 111.931 32.9473C111.931 32.2702 111.824 31.699 111.593 31.2793C111.349 30.8383 110.95 30.5468 110.438 30.5527C109.971 30.5582 109.525 30.8132 109.137 31.1748C108.74 31.5448 108.35 32.0752 107.99 32.7471C107.446 33.7637 106.658 34.3074 106.01 34.4219C105.69 34.4782 105.413 34.4309 105.195 34.3047C105.007 34.1956 104.83 34.0084 104.703 33.709L104.652 33.5732C104.619 33.4727 104.587 33.2712 104.577 32.958C104.568 32.6555 104.578 32.284 104.61 31.8682C104.674 31.0368 104.818 30.0519 105.027 29.1201C105.245 28.1524 105.404 27.2276 105.485 26.5137C105.526 26.1587 105.548 25.8434 105.546 25.5967C105.545 25.4748 105.538 25.3534 105.52 25.2461C105.51 25.1923 105.495 25.1299 105.472 25.0674C105.45 25.0093 105.407 24.919 105.326 24.8379C105.124 24.6357 104.874 24.6751 104.767 24.71C104.662 24.744 104.578 24.8018 104.529 24.8398C104.423 24.9224 104.309 25.0404 104.198 25.167C103.97 25.4281 103.677 25.8173 103.341 26.2949C102.665 27.2545 101.786 28.6188 100.866 30.1572C99.8309 31.888 98.959 33.1816 98.2383 34.0537C97.878 34.4897 97.5657 34.8071 97.2998 35.0195C97.0273 35.2372 96.8415 35.3135 96.7324 35.3291C96.6578 35.3397 96.6095 35.3267 96.5439 35.2607C96.4555 35.1716 96.3442 34.9849 96.2422 34.6387C96.0389 33.9487 95.9307 32.8325 95.9307 31.251V24.8936L95.0176 26.2373L92.4814 29.9697C91.805 30.9653 91.1403 31.7508 90.5312 32.3213C89.9157 32.8978 89.3845 33.2286 88.9766 33.3555C88.5842 33.4775 88.3812 33.3975 88.2568 33.2676C88.0943 33.0976 87.9307 32.7077 87.9307 31.9502C87.9307 31.448 88.0704 30.6764 88.3252 29.7393C88.5771 28.8128 88.9317 27.7601 89.3398 26.7119C90.164 24.5956 91.1768 22.5723 91.96 21.6289C92.3465 21.1631 92.651 20.8732 92.9072 20.7188ZM94.4014 22.6719C93.9552 22.3337 93.4181 22.4647 93.0127 22.6865C92.1926 23.1354 91.252 24.2735 90.4521 25.8203C89.8146 27.0534 89.3971 28.1433 89.1787 29.0225C89.0696 29.4616 89.0082 29.8586 88.9961 30.2002C88.9843 30.5322 89.0179 30.8561 89.1396 31.1201C89.2729 31.409 89.5289 31.6473 89.9043 31.6709C90.2268 31.6912 90.5323 31.5425 90.79 31.3574C91.3163 30.9794 91.9344 30.2371 92.6201 29.1279C93.244 28.1185 93.8125 27.0699 94.2266 26.1904C94.4333 25.7512 94.6048 25.3473 94.7256 25.0078C94.8393 24.6882 94.9307 24.3647 94.9307 24.1143C94.9306 23.5359 94.8074 22.9799 94.4014 22.6719Z" fill="black" stroke="black"/>
</svg>
